HIERARCHY
ROOT Hips
{
    OFFSET 0.000000 0.000000 0.000000
    CHANNELS 6 Xposition Yposition Zposition Zrotation Xrotation Yrotation
    JOINT Spine
    {
        OFFSET -0.000000 7.236184 0.000000
        CHANNELS 3 Zrotation Xrotation Yrotation
        JOINT Spine1
        {
            OFFSET -0.000000 20.420147 0.000000
            CHANNELS 3 Zrotation Xrotation Yrotation
            JOINT Neck
            {
                OFFSET -0.000000 20.336288 1.848754
                CHANNELS 3 Zrotation Xrotation Yrotation
                JOINT Head
                {
                    OFFSET -0.000000 12.354461 -1.764923
                    CHANNELS 3 Zrotation Xrotation Yrotation
                    End Site
                    {
                        OFFSET -0.000000 22.061537 0.000000
                    }
                }
            }
            JOINT LeftShoulder
            {
                OFFSET 3.573296 18.396038 -0.314103
                CHANNELS 3 Zrotation Xrotation Yrotation
                JOINT LeftArm
                {
                    OFFSET 10.880760 0.000000 0.000000
                    CHANNELS 3 Zrotation Xrotation Yrotation
                    JOINT LeftForeArm
                    {
                        OFFSET 27.185530 0.000000 0.000000
                        CHANNELS 3 Zrotation Xrotation Yrotation
                        JOINT LeftHand
                        {
                            OFFSET 27.825975 0.000000 0.000000
                            CHANNELS 3 Zrotation Xrotation Yrotation
                            End Site
                            {
                                OFFSET 13.236923 0.000000 0.000000
                            }
                        }
                    }
                }
            }
            JOINT RightShoulder
            {
                OFFSET -3.474926 18.396038 -0.314103
                CHANNELS 3 Zrotation Xrotation Yrotation
                JOINT RightArm
                {
                    OFFSET -10.880760 0.000000 0.000000
                    CHANNELS 3 Zrotation Xrotation Yrotation
                    JOINT RightForeArm
                    {
                        OFFSET -27.185530 0.000000 0.000000
                        CHANNELS 3 Zrotation Xrotation Yrotation
                        JOINT RightHand
                        {
                            OFFSET -27.825975 0.000000 0.000000
                            CHANNELS 3 Zrotation Xrotation Yrotation
                            End Site
                            {
                                OFFSET -13.236923 0.000000 0.000000
                            }
                        }
                    }
                }
            }
        }
    }
    JOINT LeftUpLeg
    {
        OFFSET 8.824615 0.000000 0.000000
        CHANNELS 3 Zrotation Xrotation Yrotation
        JOINT LeftLeg
        {
            OFFSET -0.000000 -35.111282 0.000000
            CHANNELS 3 Zrotation Xrotation Yrotation
            JOINT LeftFoot
            {
                OFFSET -0.000000 -42.324711 0.000000
                CHANNELS 3 Zrotation Xrotation Yrotation
                JOINT LeftToeBase
                {
                    OFFSET -0.000000 -5.735999 13.236923
                    CHANNELS 3 Zrotation Xrotation Yrotation
                    End Site
                    {
                        OFFSET -0.000000 0.000000 3.529846
                    }
                }
            }
        }
    }
    JOINT RightUpLeg
    {
        OFFSET -8.824615 0.000000 0.000000
        CHANNELS 3 Zrotation Xrotation Yrotation
        JOINT RightLeg
        {
            OFFSET -0.000000 -35.111282 0.000000
            CHANNELS 3 Zrotation Xrotation Yrotation
            JOINT RightFoot
            {
                OFFSET -0.000000 -42.324711 0.000000
                CHANNELS 3 Zrotation Xrotation Yrotation
                JOINT RightToeBase
                {
                    OFFSET -0.000000 -5.735999 13.236923
                    CHANNELS 3 Zrotation Xrotation Yrotation
                    End Site
                    {
                        OFFSET -0.000000 0.000000 3.529846
                    }
                }
            }
        }
    }
}
MOTION
Frames:    7
Frame Time:    0.008333
-3.050980    81.461571    104.847046    2.408151    -7.130206    -178.713104    1.388773    -14.273571    0.283146    -0.621275    12.422455    0.177168    2.463221    1.454613    -1.771588    4.867046    -5.904206    -1.238204    1.958426    18.895815    -7.536598    -36.851963    44.241558    -46.103897    1.845007    -2.975168    -16.840918    18.033173    -2.627325    0.473456    5.961030    22.141436    -0.279223    29.175488    46.542778    50.564640    -4.238306    -9.965781    16.234877    -15.817154    -8.835428    -3.892744    12.020770    -18.425085    2.847095    0.300266    20.854837    0.041707    -9.202192    -7.448550    -12.318817    -0.502922    -1.052398    0.558538    -3.756258    -13.032446    1.296424    2.141999    13.227692    5.697520    3.603177    -5.446106    -13.846622    -1.109775    -0.558374    1.201226    
-2.976053    81.463387    104.877182    2.362705    -7.225746    -178.636551    1.407244    -14.269731    0.261248    -0.677036    12.322216    0.158971    2.261755    1.399575    -1.752251    4.927736    -5.922930    -1.179299    1.925595    18.893267    -7.483765    -36.823341    44.263584    -46.199581    1.867687    -2.972529    -16.843164    18.114883    -2.622485    0.463695    5.873276    22.159039    -0.291489    29.519371    46.413086    50.396839    -4.193880    -9.936554    16.230570    -15.879844    -8.811703    -3.883123    12.023377    -18.625700    2.891519    0.309072    20.966280    -0.087101    -9.168200    -7.468788    -12.301818    -0.506160    -1.158312    0.562243    -3.829250    -13.189586    1.190645    2.227602    13.303593    5.683368    3.609219    -5.492810    -13.799882    -1.128370    -0.551172    1.221340    
-2.902944    81.465111    104.907059    2.318405    -7.319514    -178.560181    1.426712    -14.264858    0.240307    -0.734726    12.222872    0.140987    2.067868    1.346619    -1.733334    4.985073    -5.944815    -1.122168    1.894035    18.891228    -7.431722    -36.797462    44.284737    -46.294895    1.890607    -2.969855    -16.842445    18.195660    -2.617419    0.455401    5.787096    22.174604    -0.301936    29.846275    46.292641    50.235687    -4.151771    -9.910773    16.229338    -15.936966    -8.791247    -3.873153    12.026143    -18.825228    2.940286    0.318848    21.079916    -0.220786    -9.132216    -7.491962    -12.284200    -0.508523    -1.266094    0.564980    -3.901601    -13.344519    1.085578    2.311280    13.381297    5.674656    3.613738    -5.540410    -13.759074    -1.146101    -0.543337    1.240519    
-2.832522    81.466690    104.936707    2.275698    -7.410823    -178.483322    1.447509    -14.258005    0.219360    -0.795639    12.124381    0.124548    1.885312    1.295752    -1.714893    5.037339    -5.970926    -1.067657    1.863628    18.890055    -7.380731    -36.775806    44.304668    -46.390560    1.914362    -2.967432    -16.836338    18.275656    -2.612139    0.449800    5.702708    22.185936    -0.308901    30.146650    46.188507    50.083553    -4.112981    -9.890789    16.233221    -15.984213    -8.776410    -3.862476    12.029247    -19.024586    2.996709    0.330143    21.198715    -0.363956    -9.092249    -7.520886    -12.265282    -0.509129    -1.378942    0.565770    -3.972840    -13.497024    0.981156    2.392044    13.462731    5.674336    3.615539    -5.589629    -13.727520    -1.162487    -0.534324    1.258240    
-2.765266    81.468117    104.966309    2.234928    -7.499458    -178.405151    1.469905    -14.248602    0.200862    -0.860292    12.026821    0.107416    1.717195    1.247162    -1.696895    5.082974    -6.003438    -1.016315    1.835015    18.890224    -7.331106    -36.760426    44.322487    -46.487827    1.939503    -2.965121    -16.822989    18.355644    -2.606358    0.447888    5.619613    22.191750    -0.311126    30.412922    46.105812    49.943123    -4.077752    -9.878583    16.243690    -16.018629    -8.769153    -3.851262    12.032627    -19.225414    3.062359    0.343623    21.325693    -0.517976    -9.046170    -7.557884    -12.245685    -0.507397    -1.498913    0.563970    -4.042629    -13.647506    0.877786    2.469407    13.549623    5.683994    3.613530    -5.641230    -13.708073    -1.177192    -0.524100    1.274137    
-2.702361    81.469360    104.995644    2.197185    -7.583927    -178.325851    1.493885    -14.235958    0.186560    -0.927987    11.931417    0.088176    1.567870    1.201489    -1.679462    5.120553    -6.043692    -0.969245    1.808707    18.892178    -7.283585    -36.752617    44.337650    -46.586887    1.966130    -2.963091    -16.801207    18.435860    -2.600079    0.450216    5.538762    22.190596    -0.307531    30.636765    46.049179    49.817162    -4.046292    -9.875538    16.261518    -16.037319    -8.770859    -3.839858    12.035957    -19.426310    3.134804    0.359591    21.461590    -0.678378    -8.992908    -7.604064    -12.226792    -0.502917    -1.626837    0.559124    -4.109096    -13.794151    0.777201    2.541535    13.641620    5.702065    3.607335    -5.694547    -13.700816    -1.189805    -0.512937    1.287769    
-2.644127    81.470406    105.024788    2.162983    -7.663916    -178.244797    1.518406    -14.220104    0.165180    -0.998274    11.839075    0.078022    1.436343    1.158044    -1.663182    5.150878    -6.092741    -0.926660    1.783238    18.895773    -7.239373    -36.752968    44.349915    -46.688286    1.994711    -2.961659    -16.770981    18.517416    -2.593481    0.457228    5.457907    22.181795    -0.297821    30.814484    46.021137    49.707802    -4.019243    -9.882875    16.286596    -16.038113    -8.782687    -3.828607    12.038477    -19.628180    3.209313    0.377954    21.608208    -0.838601    -8.930640    -7.660260    -12.210060    -0.495889    -1.763131    0.551449    -4.171509    -13.936769    0.680424    2.608033    13.738694    5.726142    3.597175    -5.749456    -13.705270    -1.200390    -0.501100    1.299204    
